<?xml version="1.0" standalone="no"?>
<!DOCTYPE svg PUBLIC "-//W3C//DTD SVG 20010904//EN"
 "http://www.w3.org/TR/2001/REC-SVG-20010904/DTD/svg10.dtd">
<svg version="1.0" xmlns="http://www.w3.org/2000/svg"
 width="2221.000000pt" height="2167.000000pt" viewBox="0 0 2221.000000 2167.000000"
 preserveAspectRatio="xMidYMid meet">

<g transform="translate(0.000000,2167.000000) scale(0.100000,-0.100000)"
fill="#000000" stroke="none">
<path d="M14045 21644 c-193 -35 -344 -100 -544 -234 -263 -176 -422 -381
-482 -620 -12 -47 -22 -86 -24 -88 -1 -1 -22 5 -46 15 -35 13 -78 17 -204 17
-176 1 -246 -13 -390 -76 -112 -49 -133 -61 -190 -105 -159 -125 -290 -375
-350 -667 -15 -69 -30 -107 -66 -167 -66 -111 -159 -218 -267 -306 -93 -76
-115 -110 -95 -142 26 -41 141 -94 244 -113 l57 -10 -10 -36 c-6 -21 -32 -92
-59 -159 -54 -133 -60 -177 -28 -216 43 -56 122 -54 213 3 27 17 46 25 44 18
-3 -7 -20 -60 -37 -117 -26 -83 -30 -106 -19 -113 14 -9 89 -3 176 14 30 5 55
8 57 6 2 -2 30 -73 63 -158 69 -179 152 -369 228 -522 l53 -106 53 15 c29 8
110 17 179 20 l126 6 76 -71 c177 -164 358 -148 406 35 14 52 54 332 78 548
25 223 25 665 0 820 -31 191 -86 384 -144 498 l-24 48 32 52 c109 178 309 397
452 495 285 196 609 237 885 111 95 -43 238 -141 387 -265 298 -249 371 -302
520 -376 217 -108 427 -162 675 -175 111 -5 289 6 355 23 21 5 24 0 39 -68 15
-66 91 -478 164 -892 l28 -160 97 215 c53 117 115 266 138 329 22 63 44 118
48 123 4 4 23 0 42 -10 73 -36 181 -9 232 59 64 87 61 175 -10 258 -27 31 -32
42 -18 36 11 -5 44 -13 72 -19 113 -22 224 31 276 133 54 105 25 217 -71 273
l-36 21 80 12 c101 14 140 27 237 76 91 47 173 129 183 183 15 81 -24 152
-106 189 -42 19 -63 21 -340 21 -273 0 -302 2 -395 24 -121 28 -252 69 -259
80 -3 4 20 25 50 46 112 78 216 224 243 345 25 108 5 244 -43 305 -17 21 -32
28 -57 28 -28 0 -41 -8 -84 -58 -95 -111 -151 -162 -211 -190 -79 -38 -234
-47 -360 -20 -99 21 -109 27 -321 198 -260 211 -515 370 -710 443 -163 61
-380 97 -698 115 -328 19 -500 20 -590 3z"/>
<path d="M5835 20139 c-116 -16 -291 -58 -413 -101 -757 -259 -1303 -938
-1573 -1953 -22 -82 -102 -343 -179 -580 -378 -1168 -589 -1859 -693 -2275
-38 -151 -41 -176 -41 -290 1 -101 6 -143 26 -220 93 -347 345 -814 702 -1304
48 -65 86 -120 84 -121 -2 -2 -205 -71 -453 -154 -269 -91 -465 -162 -488
-178 -20 -14 -65 -56 -100 -92 -207 -220 -336 -587 -377 -1071 -16 -195 -71
-1498 -131 -3130 l-22 -595 -66 -100 c-88 -134 -193 -344 -231 -460 -16 -53
-37 -139 -46 -193 -8 -53 -22 -128 -30 -167 -14 -67 -105 -448 -108 -452 -1
-1 -186 -36 -411 -78 -1215 -225 -1145 -211 -1188 -242 -57 -40 -87 -101 -87
-177 1 -38 7 -73 18 -92 9 -18 121 -171 247 -342 l230 -310 149 -103 c167
-116 239 -178 291 -248 28 -39 42 -50 72 -55 57 -9 147 -49 192 -86 84 -66
120 -180 77 -245 -19 -29 -87 -64 -126 -65 -55 -1 -52 -13 24 -116 40 -54 84
-109 97 -121 27 -24 99 -53 133 -53 11 0 235 41 496 90 261 50 487 90 501 90
15 0 45 -7 68 -15 l41 -14 15 29 c9 16 25 32 38 35 82 19 333 63 337 58 3 -2
5 -59 5 -126 -1 -147 -8 -179 -232 -1067 -367 -1458 -465 -1851 -527 -2120
-116 -504 -173 -822 -159 -892 7 -36 67 -90 145 -129 93 -47 331 -122 518
-164 91 -20 167 -39 169 -41 3 -3 4 -25 2 -49 l-3 -45 1344 -1 c739 0 2378 -2
3643 -4 1265 -2 2507 -1 2760 3 l461 7 -373 1455 c-204 800 -415 1644 -468
1875 -87 384 -205 910 -209 927 0 4 107 54 239 111 922 398 1554 729 1925
1008 133 100 283 246 340 332 55 82 70 139 70 271 0 460 -225 1436 -814 3526
-294 1047 -362 1295 -485 1777 -53 207 -111 409 -141 490 -60 160 -187 427
-296 620 -82 145 -315 499 -361 549 -24 25 -72 45 -306 123 -235 79 -277 96
-271 110 68 158 106 347 106 526 0 364 -119 638 -523 1200 -152 211 -224 320
-411 620 l-156 250 -6 190 c-7 224 -27 467 -61 733 -110 866 -334 1622 -643
2175 -410 731 -955 1141 -1653 1242 -134 20 -596 29 -704 14z m270 -1380 c271
-28 634 -134 828 -242 118 -67 219 -199 337 -442 114 -235 176 -408 260 -723
159 -592 180 -921 104 -1642 -18 -170 -44 -296 -89 -429 -231 -684 -676 -1143
-1256 -1295 -237 -63 -546 -78 -750 -37 -455 91 -807 378 -1088 888 -131 236
-271 621 -296 810 -36 278 -62 731 -71 1248 l-7 360 47 210 c132 596 214 790
406 968 253 234 987 386 1575 326z m-1665 -7104 c175 -233 385 -405 655 -535
211 -103 423 -165 667 -196 176 -22 520 -15 683 15 60 11 111 18 113 16 2 -2
-19 -160 -47 -352 -122 -842 -280 -2053 -302 -2313 -7 -80 -13 -301 -13 -492
-1 -192 -2 -348 -2 -348 -1 0 -22 12 -47 26 -34 18 -61 25 -99 25 -29 0 -586
-99 -1238 -220 -652 -122 -1190 -221 -1195 -221 -22 0 43 943 101 1460 73 660
209 1331 588 2910 68 284 74 306 80 299 2 -2 27 -35 56 -74z m5532 -4716 c-11
-11 -367 -197 -370 -194 -4 3 138 1066 145 1085 3 8 56 -187 119 -435 62 -247
110 -453 106 -456z m-3067 -511 c175 -57 533 -262 745 -428 123 -96 370 -298
370 -303 0 -1 27 -301 60 -666 33 -365 60 -673 60 -685 0 -20 -22 -26 -377
-95 -411 -80 -845 -169 -961 -197 -72 -17 -74 -17 -152 5 -79 23 -82 23 -497
17 -610 -9 -1027 -15 -1568 -21 -264 -3 -610 -8 -768 -11 l-289 -6 4 360 c1
198 5 363 8 366 3 3 286 58 628 123 342 64 622 120 622 123 0 3 -51 24 -113
48 -61 24 -132 52 -157 62 -25 11 -70 26 -101 34 -63 18 -113 48 -143 89 -40
54 -15 151 49 188 148 86 819 85 1759 -1 120 -11 220 -19 222 -17 4 4 -720
119 -961 152 -173 25 -290 50 -358 79 -44 18 -97 64 -108 94 -22 58 42 161
124 200 193 91 766 89 1506 -4 107 -13 196 -22 198 -20 2 2 -35 117 -82 256
-47 139 -84 254 -83 255 2 2 48 10 103 18 113 17 173 14 260 -15z"/>
<path d="M6289 18027 c-62 -18 -133 -61 -158 -96 -48 -68 -37 -71 290 -73
l284 -3 3 27 c4 37 -62 101 -136 129 -70 27 -215 35 -283 16z"/>
<path d="M4713 17975 c-102 -28 -181 -81 -203 -135 -26 -64 4 -72 173 -46 50
8 158 17 239 19 152 5 178 11 178 47 0 26 -74 86 -129 105 -65 23 -194 28
-258 10z"/>
<path d="M4620 17431 c-30 -9 -66 -23 -79 -31 -42 -22 -121 -102 -121 -121 0
-25 6 -24 76 7 85 38 197 64 273 64 38 0 112 -11 174 -27 59 -14 110 -23 114
-19 23 22 -77 99 -163 126 -83 25 -198 26 -274 1z"/>
<path d="M6380 17383 c-60 -10 -149 -46 -193 -79 -45 -33 -77 -77 -65 -90 4
-3 48 9 100 27 78 28 111 33 203 37 97 3 120 0 195 -23 121 -38 140 -41 140
-22 0 24 -67 84 -124 111 -78 37 -178 52 -256 39z"/>
<path d="M5473 17315 c-76 -147 -433 -1224 -433 -1307 0 -21 7 -52 15 -68 27
-53 56 -60 242 -60 92 0 174 4 181 9 18 11 -16 17 -179 32 -74 7 -144 16 -157
20 -53 20 -51 32 67 396 228 705 343 1130 264 978z"/>
<path d="M6276 16838 c-85 -18 -132 -83 -123 -171 4 -43 10 -56 44 -88 56 -52
114 -61 180 -28 62 31 93 77 93 138 0 102 -90 171 -194 149z"/>
<path d="M4705 16831 c-33 -14 -74 -62 -86 -100 -25 -84 42 -182 135 -196 37
-6 55 -3 93 16 65 33 88 68 88 134 0 60 -20 95 -75 133 -34 23 -113 30 -155
13z"/>
<path d="M6057 15675 c-83 -242 -234 -366 -487 -399 l-95 -12 40 -12 c88 -26
237 -2 331 53 146 86 249 253 242 394 l-3 56 -28 -80z"/>
<path d="M14040 19275 c-135 -38 -270 -129 -270 -182 0 -25 1 -25 63 -20 34 3
121 16 192 30 72 14 194 30 273 36 142 10 182 20 182 45 0 21 -44 56 -101 78
-72 28 -258 35 -339 13z"/>
<path d="M15870 19095 c-82 -19 -183 -68 -210 -102 -18 -24 -19 -28 -6 -41 13
-13 29 -14 123 -3 59 7 210 16 335 20 252 7 271 12 227 57 -14 14 -57 37 -95
51 -88 32 -271 41 -374 18z"/>
<path d="M15120 18783 c-1 -42 166 -407 411 -897 104 -208 189 -388 189 -400
0 -38 -29 -53 -175 -89 -147 -37 -195 -52 -195 -63 0 -3 24 -3 53 1 289 35
345 51 367 104 27 67 14 102 -219 566 -257 512 -430 825 -431 778z"/>
<path d="M16154 18605 c-137 -30 -296 -111 -391 -198 -79 -74 -66 -89 27 -31
169 104 302 159 469 193 58 12 107 24 110 27 25 25 -115 31 -215 9z"/>
<path d="M14090 18553 c-39 -6 -110 -34 -110 -43 0 -4 82 -10 183 -13 196 -5
261 -17 420 -77 89 -34 97 -35 97 -16 0 36 -153 110 -283 137 -85 17 -237 23
-307 12z"/>
<path d="M16089 18276 c-91 -62 -90 -195 2 -250 102 -61 239 15 239 133 0 86
-59 141 -150 141 -42 0 -64 -6 -91 -24z"/>
<path d="M14474 18145 c-137 -82 -70 -286 89 -272 117 10 185 137 124 228 -46
70 -139 89 -213 44z"/>
<path d="M14978 16980 c-38 -29 -62 -117 -56 -204 5 -78 35 -149 89 -210 83
-96 271 -126 374 -60 l40 25 -45 -8 c-228 -40 -390 76 -390 279 0 72 21 128
49 128 11 0 111 -15 223 -34 112 -19 235 -37 273 -40 61 -5 68 -4 52 8 -22 17
-124 45 -352 97 -195 44 -223 46 -257 19z"/>
<path d="M12962 14688 l-64 -352 -57 -70 c-98 -120 -297 -393 -410 -561 -445
-661 -698 -1204 -773 -1655 -17 -106 -15 -340 6 -505 107 -867 547 -3094 1181
-5980 75 -341 141 -645 146 -675 10 -54 8 -62 -150 -583 l-161 -528 -170
-1737 c-93 -955 -172 -1756 -175 -1780 l-6 -42 3635 0 c2920 0 3636 2 3636 13
0 23 -339 4911 -346 4978 l-6 67 44 7 c209 32 383 128 549 302 125 131 205
266 272 459 75 217 106 405 114 704 5 203 7 222 39 339 91 336 101 509 42 780
-42 196 -100 326 -266 594 -49 78 -115 191 -148 252 -45 84 -77 128 -134 186
-89 91 -147 121 -334 174 -70 21 -160 50 -199 66 -122 50 -263 80 -450 95 -82
6 -89 9 -114 38 -14 17 -41 63 -58 101 -18 39 -109 230 -202 425 l-170 355
-153 455 c-327 974 -521 1530 -598 1709 -78 179 -297 512 -689 1044 -229 312
-229 311 17 -83 l103 -165 198 -574 c110 -316 198 -576 196 -577 -2 -2 -339
464 -750 1035 l-747 1038 -323 116 c-432 155 -2428 874 -2447 881 -13 5 -26
-53 -78 -346z m5497 -5048 l152 -305 -51 55 c-117 126 -117 126 -190 346 -39
115 -70 210 -70 213 0 11 16 -20 159 -309z m-1571 -3359 c639 -438 1120 -737
1315 -817 l77 -31 -287 -279 c-510 -494 -521 -504 -578 -504 -36 0 -97 24
-127 49 -22 18 -23 62 -3 104 12 23 -2 12 -46 -38 -204 -228 -284 -286 -397
-286 -67 -1 -112 15 -160 56 -30 25 -33 32 -27 63 7 38 54 138 88 187 13 18
-6 5 -46 -32 -91 -85 -129 -103 -214 -103 -52 0 -80 6 -113 23 -63 32 -83 65
-88 142 -4 56 0 73 27 131 49 104 207 361 409 664 101 151 177 268 169 260 -8
-8 -60 -72 -115 -141 -145 -183 -275 -332 -335 -383 -86 -73 -172 -80 -258
-20 -55 38 -62 56 -56 133 5 70 69 256 127 371 51 102 393 598 413 599 4 1
106 -66 225 -148z"/>
<path d="M16879 4973 c-71 -91 -72 -93 -66 -93 2 0 32 36 66 80 34 44 60 80
57 80 -2 0 -28 -30 -57 -67z"/>
</g>
</svg>
