<?xml version="1.0" standalone="no"?>
<!DOCTYPE svg PUBLIC "-//W3C//DTD SVG 20010904//EN"
 "http://www.w3.org/TR/2001/REC-SVG-20010904/DTD/svg10.dtd">
<svg version="1.0" xmlns="http://www.w3.org/2000/svg"
 width="4142.000000pt" height="3798.000000pt" viewBox="0 0 4142.000000 3798.000000"
 preserveAspectRatio="xMidYMid meet">

<g transform="translate(0.000000,3798.000000) scale(0.100000,-0.100000)"
fill="#000000" stroke="none">
<path d="M13842 37970 c-45 -5 -127 -16 -181 -24 -60 -10 -163 -16 -262 -16
-353 0 -793 -60 -1078 -147 -465 -140 -945 -439 -1638 -1019 -133 -111 -170
-130 -328 -167 -74 -17 -125 -21 -285 -21 -177 -1 -202 1 -270 22 -159 50
-277 141 -422 330 -114 146 -183 181 -258 130 -45 -31 -86 -108 -111 -209 -30
-118 -23 -297 16 -419 75 -234 214 -415 447 -583 l78 -55 -88 -32 c-387 -140
-799 -192 -1244 -156 -267 22 -359 12 -485 -53 -86 -43 -163 -162 -163 -251 0
-174 219 -370 532 -475 101 -33 261 -65 338 -65 l35 -1 -50 -25 c-104 -53
-185 -164 -200 -273 -15 -113 40 -254 134 -345 64 -60 110 -86 196 -111 83
-24 226 -16 318 18 l67 25 -63 -67 c-87 -93 -111 -145 -111 -246 -1 -99 29
-169 104 -249 105 -111 257 -143 385 -81 33 16 62 30 65 32 7 4 62 -136 125
-317 26 -74 75 -196 109 -270 34 -74 109 -240 167 -367 73 -164 106 -228 111
-215 4 9 33 163 63 342 157 911 287 1596 307 1615 3 3 50 -1 104 -10 715 -109
1474 60 2064 459 127 86 231 168 545 431 272 227 346 284 501 385 203 132 418
222 614 256 142 24 417 15 560 -19 541 -130 990 -483 1407 -1107 104 -156 100
-131 41 -261 -247 -552 -333 -1264 -257 -2129 27 -316 123 -1054 150 -1154 52
-198 202 -293 395 -253 136 29 279 121 379 244 26 31 52 58 58 59 162 21 398
8 552 -31 54 -13 102 -22 108 -18 13 8 193 379 292 603 79 178 216 519 277
690 23 64 39 94 48 93 8 0 47 -8 85 -17 78 -19 345 -34 345 -20 0 5 -29 101
-65 214 -35 112 -62 206 -61 208 2 2 32 -17 68 -42 85 -60 155 -86 226 -86
123 1 202 72 202 183 0 58 -15 105 -72 232 -44 97 -138 359 -138 383 0 5 29
12 65 16 141 14 375 107 437 173 75 80 58 131 -81 236 -236 179 -445 420 -578
667 -32 59 -46 103 -68 209 -92 461 -263 832 -495 1075 -89 92 -204 182 -295
229 -68 35 -276 120 -355 146 -309 99 -662 105 -909 17 -24 -9 -45 -15 -46
-14 -1 2 -10 44 -19 93 -28 139 -62 239 -132 380 -79 161 -168 286 -304 428
-131 137 -268 248 -480 389 -331 219 -639 342 -990 393 -128 19 -425 27 -538
15z"/>
<path d="M14048 33769 c-145 -21 -277 -72 -335 -130 -41 -39 -43 -73 -5 -92
39 -20 73 -25 306 -42 237 -17 360 -34 566 -76 229 -47 247 -50 302 -47 71 4
82 23 47 86 -51 92 -230 208 -404 262 -144 44 -337 60 -477 39z"/>
<path d="M10775 33449 c-152 -19 -318 -81 -382 -142 -40 -37 -41 -51 -7 -74
24 -15 69 -18 383 -24 266 -5 398 -12 521 -28 164 -21 284 -26 314 -15 30 12
18 55 -27 99 -145 139 -503 221 -802 184z"/>
<path d="M30477 33290 c-265 -48 -506 -217 -495 -347 3 -35 7 -39 43 -51 44
-15 96 -10 345 28 103 16 207 23 440 28 269 6 309 9 333 25 37 24 37 71 0 119
-92 120 -279 197 -498 203 -66 2 -142 0 -168 -5z"/>
<path d="M27337 32920 c-259 -44 -524 -228 -544 -379 -13 -96 50 -103 315 -37
249 62 354 80 607 101 190 16 255 39 255 93 0 83 -153 183 -336 218 -81 15
-218 17 -297 4z"/>
<path d="M12503 32838 c-116 -166 -429 -750 -788 -1474 -317 -640 -327 -663
-333 -755 -4 -63 -1 -82 17 -118 26 -50 92 -95 162 -110 85 -18 391 -61 489
-68 171 -12 77 29 -245 106 -241 58 -271 68 -296 99 -43 55 -35 76 259 659
423 842 741 1527 777 1676 10 39 -7 33 -42 -15z"/>
<path d="M10394 32581 c-55 -14 -70 -33 -37 -45 9 -4 82 -20 162 -36 308 -62
543 -155 790 -312 53 -34 120 -74 149 -90 51 -29 52 -29 52 -8 0 31 -135 163
-234 230 -165 110 -393 207 -581 245 -93 19 -257 28 -301 16z"/>
<path d="M13935 32469 c-164 -25 -362 -89 -476 -153 -59 -33 -139 -103 -139
-122 0 -23 29 -17 180 40 297 112 435 137 798 143 149 3 272 9 272 14 0 16
-44 37 -120 60 -63 18 -106 22 -265 25 -104 1 -217 -1 -250 -7z"/>
<path d="M30768 32250 c-189 -34 -374 -131 -483 -252 -75 -83 -97 -159 -43
-143 13 4 82 33 153 65 220 99 328 128 510 137 131 6 218 -5 423 -54 128 -31
155 -35 162 -23 22 36 -77 136 -192 193 -117 58 -205 78 -353 82 -71 2 -151 0
-177 -5z"/>
<path d="M10594 32019 c-58 -16 -126 -71 -156 -125 -57 -103 -44 -211 37 -302
131 -146 366 -119 458 53 16 30 21 58 22 110 0 60 -4 78 -31 125 -65 115 -207
175 -330 139z"/>
<path d="M29345 31807 c22 -134 337 -818 827 -1796 221 -442 349 -709 354
-736 8 -54 -10 -92 -54 -118 -18 -11 -146 -47 -285 -82 -284 -71 -383 -100
-393 -117 -17 -27 558 42 690 82 73 23 137 79 157 137 18 57 7 177 -25 253
-49 116 -618 1257 -778 1560 -252 477 -417 766 -475 828 l-24 27 6 -38z"/>
<path d="M13446 31774 c-86 -31 -157 -119 -171 -210 -14 -99 47 -213 145 -268
50 -28 63 -31 140 -31 96 0 141 18 196 77 54 57 69 95 69 178 0 58 -5 84 -22
116 -29 55 -103 119 -160 138 -57 20 -145 20 -197 0z"/>
<path d="M27485 31619 c-107 -13 -253 -64 -347 -122 -134 -82 -248 -211 -248
-282 0 -39 26 -32 183 49 321 168 540 199 911 127 82 -16 155 -27 162 -24 40
15 1 70 -92 133 -89 59 -224 105 -351 120 -99 11 -119 11 -218 -1z"/>
<path d="M30862 31032 c-138 -50 -233 -192 -219 -330 27 -258 348 -364 543
-180 71 67 99 131 98 228 -1 47 -7 89 -18 113 -24 55 -92 125 -151 155 -68 34
-178 41 -253 14z"/>
<path d="M27829 30574 c-210 -73 -279 -330 -133 -493 67 -75 137 -105 244
-106 71 0 94 4 141 26 157 74 227 255 155 402 -31 65 -99 131 -164 160 -62 27
-180 33 -243 11z"/>
<path d="M33361 30561 c-1 -16 14 -106 135 -775 302 -1683 417 -2702 431
-3831 13 -1045 -64 -1980 -262 -3177 -56 -336 -44 -321 35 47 41 187 142 770
156 893 4 34 9 61 11 59 9 -10 -59 -666 -88 -837 -116 -707 -354 -1456 -633
-1995 -169 -328 -360 -587 -630 -855 l-125 -124 31 -41 c139 -184 314 -492
396 -700 54 -135 115 -325 152 -470 17 -66 62 -223 100 -350 280 -935 364
-1293 454 -1930 96 -686 209 -1887 289 -3065 l12 -185 121 3 c110 3 122 2 129
-15 6 -16 812 -2368 940 -2745 l54 -158 -27 0 c-15 0 -244 14 -510 31 -266 17
-485 29 -488 26 -3 -3 10 -128 30 -279 42 -327 266 -2398 266 -2464 0 -2 -864
-4 -1920 -4 l-1920 0 0 223 c-1 266 -9 598 -19 797 -4 80 -7 146 -6 147 0 1
59 19 131 38 83 23 356 74 774 145 978 166 1999 348 2012 359 3 3 -13 177 -37
386 -23 209 -51 452 -60 540 -10 88 -19 162 -21 164 -2 2 -432 32 -956 66
l-953 62 -135 -76 c-411 -229 -966 -439 -1427 -540 -373 -81 -581 -102 -1003
-102 -704 1 -1119 -42 -2045 -214 -375 -69 -484 -85 -589 -85 -98 0 -123 9
-177 67 -117 122 -109 278 18 362 89 59 335 120 791 195 l272 45 332 136 c368
151 382 157 323 150 -52 -7 -466 -39 -820 -65 -774 -55 -1176 -73 -1486 -68
-263 4 -263 4 -396 91 -173 112 -236 238 -188 378 20 57 77 134 118 159 18 11
25 20 17 20 -8 1 0 9 19 19 l34 18 -86 6 c-145 10 -256 47 -307 102 -93 99 83
441 276 538 27 13 249 106 494 207 245 100 477 195 515 211 52 22 233 62 700
155 347 69 641 128 654 132 20 7 -1049 53 -1193 52 -32 0 -238 -53 -587 -150
-470 -131 -548 -150 -612 -150 -186 0 -286 77 -287 221 0 96 22 150 93 226
168 179 668 426 1252 616 l110 36 825 56 c454 30 836 56 850 58 14 1 -40 15
-120 30 -613 117 -1076 292 -1233 466 -73 81 -111 205 -110 361 1 113 21 199
70 292 58 112 36 111 299 12 519 -194 887 -307 1199 -369 289 -58 463 -104
790 -212 449 -147 1113 -411 1528 -607 l119 -56 -6 73 c-4 39 -15 191 -26 337
-106 1395 -277 2545 -505 3375 -50 185 -80 281 -181 580 -21 61 -117 371 -214
690 l-177 580 -49 7 c-27 4 -125 17 -219 28 -409 51 -812 156 -1163 304 -619
262 -1608 923 -2857 1910 -467 368 -697 568 -905 783 -358 369 -563 721 -640
1098 -30 145 -34 267 -20 573 6 150 10 275 7 278 -7 7 -40 -6 -1240 -527
-1286 -557 -1151 -486 -1286 -684 -391 -574 -612 -1462 -671 -2705 -25 -539
-6 -951 65 -1400 219 -1373 881 -3081 1953 -5045 270 -494 636 -1118 945
-1609 94 -149 184 -295 201 -324 91 -156 328 -526 491 -768 l186 -276 -26
-291 c-153 -1752 -384 -3085 -675 -3897 -67 -188 -510 -1581 -510 -1605 0 -2
-96 -128 -214 -279 l-213 -274 31 -6 c17 -3 70 -8 119 -12 48 -4 90 -10 92
-14 2 -4 -38 -151 -91 -326 -412 -1382 -1090 -3721 -1080 -3731 4 -4 13535 -8
16102 -4 l1040 1 -334 1891 c-184 1040 -331 1893 -328 1896 3 3 148 34 322 69
175 35 319 65 320 67 9 8 -867 1323 -888 1334 -22 11 -38 98 -346 1840 l-323
1828 -29 320 c-46 519 -45 492 -24 498 23 7 1971 420 2244 476 107 22 339 68
515 101 318 61 321 62 415 112 253 135 485 305 703 518 393 382 596 779 639
1246 27 295 -35 790 -162 1289 -125 494 -261 900 -610 1830 -103 275 -219 597
-258 715 -79 242 -157 418 -363 812 -618 1183 -1793 3213 -2760 4765 -665
1067 -1172 1817 -1493 2206 -53 65 -101 130 -107 143 -8 23 -7 25 13 18 50
-15 52 -14 15 6 -21 11 -43 18 -49 14 -6 -4 -8 -3 -5 3 4 6 1 13 -7 16 -10 4
-12 0 -8 -16 4 -17 -9 -9 -54 31 -32 29 -68 55 -79 57 -11 3 -339 52 -730 110
-390 58 -722 108 -736 111 -25 5 -29 0 -57 -68 -37 -86 -37 -81 -17 132 25
268 45 612 55 986 35 1219 -109 2602 -440 4229 -82 402 -196 900 -199 866z
m4520 -12431 c85 -26 152 -70 186 -121 24 -37 28 -52 27 -111 0 -59 -5 -78
-42 -150 -81 -160 -242 -357 -528 -648 l-182 -185 -171 -475 c-93 -261 -169
-476 -167 -477 2 -2 128 216 282 484 l279 488 427 211 426 212 389 -29 c213
-16 402 -30 418 -31 25 -3 32 -9 43 -43 8 -22 14 -72 14 -110 1 -82 -17 -130
-68 -175 -59 -52 -111 -60 -373 -60 l-236 0 -320 -258 -319 -257 -178 -430
c-214 -519 -211 -512 -203 -503 4 3 136 208 295 454 l288 448 443 157 442 157
281 -72 280 -72 19 -43 c23 -54 24 -133 2 -167 -36 -56 -134 -76 -452 -93
l-163 -9 -97 -56 c-54 -31 -169 -98 -256 -148 l-159 -93 -220 -463 c-121 -255
-219 -464 -217 -466 2 -2 177 140 389 315 212 176 394 321 405 324 32 7 957
115 987 115 22 0 32 -8 48 -41 27 -52 36 -126 21 -172 -19 -57 -76 -97 -213
-150 -67 -27 -256 -114 -418 -193 l-295 -145 -277 -337 -277 -337 -383 -88
c-211 -49 -853 -199 -1428 -333 -574 -135 -1049 -243 -1055 -242 -7 2 118 421
305 1024 l316 1022 53 693 c40 523 57 698 67 709 21 22 1477 989 1490 989 7 1
40 -8 75 -19z"/>
<path d="M12417 29665 c-458 -104 -696 -170 -713 -197 -16 -26 326 16 748 93
257 46 271 47 286 17 91 -177 50 -430 -94 -574 -60 -60 -158 -114 -244 -134
-80 -20 -212 -18 -298 4 -40 10 -75 16 -78 13 -9 -9 59 -55 116 -78 76 -30
239 -38 330 -15 201 51 353 200 416 411 26 85 24 248 -3 332 -44 134 -94 184
-185 182 -23 0 -150 -24 -281 -54z"/>
<path d="M28575 28198 c23 -75 139 -218 240 -295 147 -112 329 -184 514 -203
222 -23 493 51 668 184 61 46 110 102 100 112 -3 3 -49 -17 -103 -44 -136 -68
-258 -110 -375 -127 -355 -53 -658 47 -948 313 -49 45 -92 82 -96 82 -3 0 -3
-10 0 -22z"/>
<path d="M23196 27465 c15 -163 123 -589 259 -1028 463 -1494 1211 -3273 1768
-4202 224 -374 446 -645 590 -720 46 -23 48 -24 22 -4 -215 165 -455 518 -776
1144 -634 1237 -1494 3449 -1819 4680 -36 139 -48 174 -44 130z"/>
<path d="M32302 26259 c-145 -576 -408 -1236 -833 -2089 -275 -550 -451 -864
-658 -1174 -422 -630 -926 -1134 -1488 -1488 -160 -100 -485 -261 -665 -327
-243 -91 -489 -154 -751 -193 -119 -18 -189 -22 -437 -22 -332 -1 -441 10
-698 70 -80 19 -147 32 -149 30 -3 -2 31 -16 74 -30 720 -237 1628 -135 2411
269 676 349 1275 908 1769 1651 195 291 323 519 552 974 488 971 791 1760 906
2362 42 216 25 200 -33 -33z"/>
<path d="M13795 25359 c-1353 -488 -2463 -889 -2466 -891 -3 -2 -601 -830
-1328 -1841 -728 -1011 -1325 -1836 -1327 -1835 -2 2 155 463 349 1024 l352
1020 249 400 c138 219 265 423 283 452 19 28 32 52 29 52 -7 0 -477 -634 -682
-920 -374 -522 -629 -906 -777 -1170 -159 -282 -402 -956 -1122 -3110 l-312
-935 -243 -505 c-133 -278 -299 -624 -367 -769 -79 -167 -138 -280 -161 -306
l-37 -43 -95 -6 c-376 -26 -632 -79 -870 -178 -52 -22 -195 -68 -317 -103
-271 -79 -370 -118 -477 -189 -154 -102 -260 -233 -401 -496 -43 -80 -125
-221 -183 -315 -197 -318 -244 -398 -303 -509 -157 -300 -246 -612 -286 -998
-14 -138 -14 -185 -5 -308 20 -246 81 -543 175 -846 34 -109 34 -113 29 -250
-6 -174 13 -530 39 -734 64 -507 215 -953 430 -1275 227 -340 578 -625 904
-734 97 -32 274 -71 324 -71 30 0 31 -2 31 -41 0 -43 -605 -8798 -614 -8882
l-5 -47 6440 0 6440 0 -6 53 c-3 28 -143 1447 -310 3152 l-304 3100 -286 944
-285 944 109 496 c1028 4648 1869 8793 2155 10621 109 691 140 971 140 1260 0
238 -10 336 -60 570 -124 585 -444 1314 -926 2115 -298 494 -731 1116 -1102
1584 l-130 165 -112 619 c-62 340 -114 620 -116 621 -2 2 -1110 -397 -2463
-885z m-6906 -8216 c-22 -65 -80 -242 -129 -393 l-90 -275 -146 -165 c-80 -91
-150 -169 -156 -175 -5 -5 112 235 262 534 150 300 276 555 281 568 5 13 11
23 13 23 3 0 -13 -53 -35 -117z m3103 -6370 c247 -340 505 -730 571 -864 69
-141 190 -475 212 -587 29 -140 7 -204 -94 -274 -143 -100 -293 -102 -417 -7
-135 104 -428 440 -783 899 -174 224 -196 248 -101 110 557 -813 903 -1357
1043 -1639 69 -139 71 -146 75 -230 5 -117 -18 -181 -92 -248 -67 -61 -127
-84 -242 -90 -159 -10 -241 30 -424 204 l-101 96 50 -80 c107 -173 162 -313
142 -365 -14 -36 -77 -87 -150 -121 -95 -45 -200 -49 -315 -13 -46 14 -110 44
-142 65 -72 48 -277 254 -415 416 -140 165 -141 166 -106 95 34 -68 46 -154
27 -189 -13 -25 -153 -97 -207 -107 -111 -21 -132 -4 -952 790 -227 221 -461
446 -519 502 l-107 101 70 23 c89 29 386 180 580 294 461 272 1165 731 1985
1295 129 88 235 161 237 161 1 0 79 -107 175 -237z"/>
<path d="M9314 8555 c39 -60 221 -291 265 -335 26 -27 -59 92 -160 222 -94
121 -146 177 -105 113z"/>
<path d="M25000 25949 c367 -338 1082 -839 1688 -1183 578 -328 1360 -683
1847 -840 285 -91 357 -111 315 -87 -8 5 -139 59 -290 121 -790 322 -1298 565
-1894 907 -488 281 -859 523 -1413 924 -166 121 -305 219 -310 219 -4 -1 21
-28 57 -61z"/>
<path d="M25364 24797 c115 -124 245 -239 441 -387 370 -281 819 -513 1308
-675 799 -264 1703 -300 2497 -100 129 32 374 114 409 136 19 12 26 13 -144
-30 -290 -73 -637 -132 -905 -152 -222 -17 -688 -6 -905 20 -579 70 -1054 209
-1573 461 -423 206 -755 431 -1162 788 -66 59 -51 32 34 -61z"/>
<path d="M33621 22504 c0 -11 3 -14 6 -6 3 7 2 16 -1 19 -3 4 -6 -2 -5 -13z"/>
</g>
</svg>
