<?xml version="1.0" standalone="no"?>
<!DOCTYPE svg PUBLIC "-//W3C//DTD SVG 20010904//EN"
 "http://www.w3.org/TR/2001/REC-SVG-20010904/DTD/svg10.dtd">
<svg version="1.0" xmlns="http://www.w3.org/2000/svg"
 width="3365.000000pt" height="3994.000000pt" viewBox="0 0 3365.000000 3994.000000"
 preserveAspectRatio="xMidYMid meet">

<g transform="translate(0.000000,3994.000000) scale(0.100000,-0.100000)"
fill="#000000" stroke="none">
<path d="M23500 34030 c1 -31 38 -201 39 -179 2 33 -21 184 -30 194 -5 5 -9
-1 -9 -15z"/>
<path d="M22155 32880 c-122 -20 -245 -70 -351 -146 -118 -83 -215 -223 -174
-249 5 -3 74 27 152 68 79 41 176 87 216 101 165 59 349 70 549 35 203 -36
203 -36 203 -6 0 53 -145 145 -285 182 -75 20 -231 27 -310 15z"/>
<path d="M21100 32874 c-3 -83 375 -902 831 -1800 238 -470 249 -498 219 -555
-17 -31 -54 -44 -275 -98 -236 -58 -365 -98 -365 -113 0 -26 574 53 644 89 40
20 84 61 102 95 21 41 18 147 -7 215 -51 140 -705 1433 -910 1801 -142 255
-237 401 -239 366z"/>
<path d="M15616 32489 c141 -414 328 -858 531 -1262 69 -139 87 -168 101 -162
112 44 313 69 499 62 l142 -5 86 -90 c99 -104 183 -161 289 -197 81 -27 182
-33 245 -14 92 27 165 109 201 226 60 193 212 1533 174 1533 -5 0 -142 -16
-304 -35 -303 -36 -687 -75 -935 -96 -332 -28 -738 25 -968 126 -45 20 -88 39
-94 42 -8 3 7 -52 33 -128z"/>
<path d="M19155 32320 c-184 -29 -358 -118 -467 -239 -64 -71 -94 -140 -69
-156 5 -3 85 33 178 80 202 103 308 134 483 142 92 4 140 1 240 -17 69 -12
146 -24 173 -27 44 -5 47 -4 47 17 0 30 -63 88 -140 129 -113 60 -309 92 -445
71z"/>
<path d="M22497 32100 c-181 -45 -280 -240 -201 -398 28 -56 63 -91 128 -125
59 -31 183 -31 247 1 133 65 198 208 157 344 -15 52 -86 130 -141 156 -52 24
-138 34 -190 22z"/>
<path d="M19580 31911 c-125 -39 -220 -157 -220 -276 0 -196 218 -327 402
-243 183 84 232 299 101 439 -69 74 -189 108 -283 80z"/>
<path d="M4585 31129 c-44 -11 -113 -36 -154 -56 -124 -61 -244 -191 -194
-210 9 -4 73 12 142 35 165 54 189 59 298 72 159 18 325 -9 523 -85 145 -55
178 -39 104 52 -68 82 -228 168 -373 199 -94 20 -249 17 -346 -7z"/>
<path d="M7350 31083 c-129 -62 -262 -213 -188 -213 12 0 82 20 157 44 183 60
245 70 410 63 147 -5 222 -21 384 -82 119 -45 141 -47 145 -17 5 30 -111 145
-188 187 -53 28 -62 30 -270 42 -350 19 -362 19 -450 -24z"/>
<path d="M6062 31044 c-66 -115 -218 -454 -403 -897 -199 -477 -470 -1172
-495 -1267 -27 -106 -4 -189 68 -243 48 -36 88 -45 238 -56 336 -25 468 -25
443 -1 -11 12 -223 54 -403 80 -177 27 -226 45 -238 92 -4 18 -5 51 -1 74 4
22 78 214 165 425 224 549 386 968 536 1389 67 190 138 418 138 446 0 27 -16
13 -48 -42z"/>
<path d="M7625 30367 c-80 -32 -137 -88 -164 -160 -19 -50 -13 -147 13 -202
79 -171 322 -216 454 -84 129 128 98 330 -65 426 -38 22 -61 27 -127 30 -48 1
-93 -2 -111 -10z"/>
<path d="M4789 30336 c-89 -32 -146 -86 -174 -165 -44 -125 15 -264 139 -329
44 -23 63 -27 136 -27 100 0 144 19 204 85 50 56 66 97 66 172 0 187 -197 326
-371 264z"/>
<path d="M20897 29705 c-52 -18 -73 -39 -101 -99 -36 -79 -51 -152 -49 -256 5
-410 396 -683 773 -541 55 21 120 65 110 75 -3 2 -39 -4 -80 -15 -137 -36
-291 -22 -416 37 -172 81 -292 302 -270 495 9 76 32 151 54 179 l18 22 230
-41 c777 -140 1030 -142 499 -5 -163 42 -622 146 -695 158 -19 3 -52 -1 -73
-9z"/>
<path d="M7028 27960 c-282 -286 -632 -398 -1017 -325 -41 8 -125 31 -187 52
-62 20 -117 34 -121 29 -21 -21 158 -130 280 -170 154 -51 368 -57 536 -16 95
23 222 79 308 137 137 91 284 262 317 371 14 43 -18 21 -116 -78z"/>
<path d="M17386 26223 c-2 -10 -53 -289 -112 -620 l-108 -603 -94 -117 c-138
-172 -428 -561 -573 -768 -939 -1339 -1471 -2490 -1550 -3350 -25 -272 11
-652 137 -1455 286 -1828 1121 -5943 2164 -10662 l101 -457 -286 -945 -286
-945 -304 -3103 c-168 -1707 -307 -3124 -311 -3150 l-6 -48 6440 0 6439 0 -4
68 c-45 632 -619 8898 -618 8899 1 2 55 12 120 23 336 57 627 219 901 501 211
218 346 435 471 759 153 396 239 954 232 1505 l-2 150 51 165 c95 314 153 610
167 856 15 266 -59 692 -172 988 -74 195 -153 339 -430 786 -49 80 -132 222
-182 315 -133 243 -217 355 -341 450 -125 96 -219 136 -531 226 -114 33 -268
84 -341 113 -141 57 -319 105 -483 130 -88 13 -151 20 -411 42 -47 4 -67 11
-83 28 -11 12 -92 173 -179 357 -87 184 -258 541 -379 794 l-221 460 -187 565
c-632 1903 -1028 3031 -1169 3325 -118 246 -387 663 -806 1250 -231 322 -728
995 -735 995 -2 0 126 -208 285 -462 l289 -463 351 -1019 c193 -560 349 -1020
348 -1021 -2 -2 -600 826 -1329 1838 l-1326 1842 -2459 887 c-1352 488 -2462
887 -2466 887 -4 1 -9 -7 -12 -16z m9639 -9563 c158 -316 280 -568 272 -560
-9 8 -81 89 -161 180 l-146 165 -127 385 c-69 212 -128 392 -131 400 -16 45
31 -46 293 -570z m-2907 -5833 c881 -605 1561 -1046 2009 -1304 189 -108 439
-232 526 -261 l57 -19 -432 -419 c-777 -751 -851 -822 -948 -899 -91 -73 -124
-88 -179 -83 -59 6 -174 55 -213 91 -28 25 -30 31 -26 85 3 38 15 79 36 122
37 74 39 75 -94 -80 -304 -357 -428 -463 -591 -505 -80 -21 -188 -19 -256 4
-88 31 -176 98 -191 146 -15 52 49 207 151 365 l55 84 -115 -109 c-173 -166
-246 -204 -389 -205 -227 -1 -368 119 -368 314 0 78 20 147 76 258 129 256
501 841 1014 1593 119 174 113 171 -30 -15 -426 -554 -772 -941 -888 -992 -64
-29 -164 -35 -235 -14 -67 19 -172 96 -201 146 -28 47 -27 150 3 253 39 137
171 479 216 562 57 105 203 331 339 525 193 274 389 540 398 540 5 0 129 -82
276 -183z"/>
<path d="M24273 8493 c-38 -48 -98 -126 -133 -173 -35 -47 -68 -91 -73 -97 -5
-7 -7 -13 -4 -13 6 0 201 242 261 323 15 21 26 40 23 43 -2 3 -36 -35 -74 -83z"/>
<path d="M11954 23510 c-262 -178 -650 -369 -1559 -768 -973 -427 -1469 -674
-1789 -892 -729 -497 -1311 -1349 -1786 -2615 -165 -440 -304 -888 -524 -1686
-282 -1022 -320 -1155 -408 -1389 -55 -147 -140 -325 -190 -398 -327 -475
-736 -9 -1443 1643 -120 280 -361 877 -463 1145 -22 58 -59 137 -83 175 -50
82 -125 246 -164 360 -16 44 -31 84 -35 88 -13 15 -425 -743 -669 -1231 -326
-653 -492 -1063 -555 -1376 -70 -343 -127 -905 -156 -1516 -6 -129 -13 -257
-16 -285 l-5 -50 -139 -73 c-160 -85 -314 -183 -420 -269 -174 -140 -330 -333
-396 -489 -69 -165 -185 -380 -360 -669 -336 -557 -478 -825 -593 -1120 -301
-768 -261 -1429 124 -2016 36 -55 64 -103 61 -107 -10 -17 -48 -224 -61 -339
-21 -173 -21 -500 0 -673 53 -434 198 -879 378 -1156 164 -252 443 -498 725
-639 56 -27 92 -51 89 -58 -2 -7 -43 -136 -90 -287 -652 -2095 -1020 -3819
-1106 -5190 -30 -468 -19 -1009 25 -1303 l6 -37 6014 0 6014 0 5 23 c5 23 29
408 45 722 44 871 38 1901 -16 2675 -61 892 -198 1639 -390 2128 -82 209 -415
844 -612 1166 -132 216 -254 372 -304 388 -8 3 11 37 54 94 209 282 330 559
345 795 16 247 -107 633 -302 949 l-54 87 1055 3287 1054 3288 10 176 c30 549
39 1561 20 2147 -47 1411 -169 2397 -411 3316 -279 1066 -481 1579 -756 1919
-97 120 -86 116 -169 60z m-7549 -7170 c44 -7 105 -20 135 -31 152 -53 305
-212 414 -426 l36 -72 -20 -54 c-81 -216 -291 -335 -646 -367 -97 -9 -163 -9
-276 0 l-148 12 -64 -59 c-149 -135 -334 -308 -335 -313 0 -3 66 -54 147 -115
439 -328 872 -695 1009 -855 75 -87 128 -176 142 -241 21 -94 -22 -160 -169
-259 -118 -80 -142 -90 -200 -90 -173 0 -738 287 -1332 676 -89 58 -164 101
-168 97 -5 -4 -36 -107 -70 -228 -35 -121 -65 -225 -67 -231 -2 -6 58 -60 134
-120 533 -420 1025 -870 1141 -1043 90 -136 94 -250 9 -315 -48 -37 -122 -61
-266 -87 -153 -28 -186 -23 -355 59 -229 111 -508 278 -935 559 -145 96 -267
175 -272 176 -7 2 -219 -315 -219 -327 0 -3 174 -160 388 -349 213 -189 419
-377 457 -419 78 -83 119 -156 137 -238 15 -73 -7 -149 -62 -219 -43 -54 -175
-165 -210 -176 -104 -33 -607 253 -1258 717 -95 68 -198 140 -230 160 -244
156 -392 424 -392 706 0 111 23 204 76 311 39 80 61 109 138 185 88 88 93 94
125 186 106 296 221 469 390 581 84 56 234 131 352 175 l77 29 77 155 c227
457 490 808 671 896 50 24 71 29 139 29 95 0 161 -26 239 -96 44 -39 49 -41
43 -19 -39 156 -65 460 -49 565 22 143 85 258 212 387 l75 76 95 8 c318 24
723 26 885 4z"/>
</g>
</svg>
